<svg xmlns="http://www.w3.org/2000/svg" viewBox="0 0 512 512" role="img" aria-label="NAIADEL logo symbol">
  <defs>
    <linearGradient id="gold" x1="0" y1="0" x2="1" y2="1"><stop offset="0" stop-color="#fff3a8"/><stop offset=".55" stop-color="#d6a72f"/><stop offset="1" stop-color="#7b5a12"/></linearGradient>
    <linearGradient id="teal" x1="0" y1="0" x2="1" y2="1"><stop offset="0" stop-color="#d6fff8"/><stop offset=".55" stop-color="#00b9b5"/><stop offset="1" stop-color="#024442"/></linearGradient>
    <linearGradient id="silver" x1="0" y1="0" x2="1" y2="1"><stop offset="0" stop-color="#ffffff"/><stop offset=".6" stop-color="#bac7c9"/><stop offset="1" stop-color="#5a6668"/></linearGradient>
    <filter id="shadow" x="-20%" y="-20%" width="140%" height="140%"><feDropShadow dx="0" dy="8" stdDeviation="8" flood-color="#000" flood-opacity=".24"/></filter>
  </defs>
  <circle cx="256" cy="256" r="220" fill="#f7faf8" opacity=".4"/>
  <path d="M256 32 A224 224 0 0 0 256 480Z" fill="#fff8df" stroke="url(#gold)" stroke-width="12"/>
  <path d="M256 32 A224 224 0 0 1 256 480Z" fill="#062e32" stroke="url(#silver)" stroke-width="12"/>
  <path d="M256 72 C214 136 190 218 204 306 C211 352 233 398 256 440" fill="none" stroke="url(#gold)" stroke-width="18" stroke-linecap="round"/>
  <path d="M256 72 C306 139 325 224 307 307 C297 355 278 399 256 440" fill="none" stroke="url(#silver)" stroke-width="18" stroke-linecap="round"/>
  <g transform="translate(160 246)"><circle r="42" fill="url(#gold)" stroke="#fff3a8" stroke-width="5"/><g fill="url(#gold)"><path d="M0-96 L14-52 L0-64 L-14-52Z"/><path d="M0 96 L14 52 L0 64 L-14 52Z"/><path d="M96 0 L52 14 L64 0 L52-14Z"/><path d="M-96 0 L-52 14 L-64 0 L-52-14Z"/><path d="M68-68 L47-28 L28-47Z"/><path d="M-68-68 L-47-28 L-28-47Z"/><path d="M68 68 L47 28 L28 47Z"/><path d="M-68 68 L-47 28 L-28 47Z"/></g></g>
  <g transform="translate(349 251)"><path d="M0-62 C-36-38-53 5-36 46 C0 29 34 5 45-42 C26-36 12-47 0-62Z" fill="url(#teal)" stroke="url(#silver)" stroke-width="8"/><path d="M-7 50 C-2 14 2-15 7-55" stroke="#fff" stroke-width="7" stroke-linecap="round"/><path d="M-5 14 C22 10 41-8 51-31 M-2-16 C-29-12-44-1-55 18" stroke="#eafaf7" stroke-width="6" stroke-linecap="round"/></g>
  <path d="M256 50 L282 120 L271 380 L256 466 L241 380 L230 120Z" fill="url(#silver)" stroke="#9e7a20" stroke-width="6" filter="url(#shadow)"/>
  <path d="M193 205 L256 180 L319 205 L286 226 L256 212 L226 226Z" fill="url(#gold)" stroke="#f9edba" stroke-width="4"/>
  <path d="M140 374 C174 358 209 357 256 392 C303 357 340 358 374 374" fill="none" stroke="url(#silver)" stroke-width="14" stroke-linecap="round" opacity=".9"/>
</svg>