<svg xmlns="http://www.w3.org/2000/svg" viewBox="0 0 512 512" role="img" aria-label="The Flood logo symbol">
  <defs>
    <linearGradient id="yellow" x1="0" y1="0" x2="1" y2="1"><stop offset="0" stop-color="#ffe94d"/><stop offset="1" stop-color="#f0b000"/></linearGradient>
    <linearGradient id="red" x1="0" y1="0" x2="1" y2="1"><stop offset="0" stop-color="#a72222"/><stop offset="1" stop-color="#561011"/></linearGradient>
    <filter id="shadow" x="-20%" y="-20%" width="140%" height="140%"><feDropShadow dx="0" dy="8" stdDeviation="8" flood-opacity=".4"/></filter>
  </defs>
  <path d="M256 24 L486 444 H26Z" fill="#121416" stroke="url(#red)" stroke-width="28" stroke-linejoin="round" filter="url(#shadow)"/>
  <path d="M104 395 C168 362 342 362 408 395" fill="none" stroke="#7a1117" stroke-width="34" opacity=".9"/>
  <path d="M91 337 C155 308 360 309 421 337" fill="none" stroke="#0c0d0e" stroke-width="12"/>
  <path d="M72 321 C140 301 377 301 441 321" fill="none" stroke="#222" stroke-width="8" stroke-dasharray="24 24"/>
  <path d="M253 276 C235 242 248 213 272 201 C262 230 288 235 302 210 C307 237 303 259 322 278 C338 294 336 335 308 350 C311 321 292 311 279 289 C277 323 254 335 235 356 C219 327 231 299 253 276Z" fill="#050607"/>
  <path d="M173 416 C185 374 222 354 256 354 C293 354 327 374 340 416Z" fill="#2d3034" stroke="#0b0b0c" stroke-width="8"/>
  <circle cx="223" cy="404" r="22" fill="#111" stroke="#555" stroke-width="8"/><circle cx="289" cy="404" r="22" fill="#111" stroke="#555" stroke-width="8"/>
  <path d="M203 380 C226 363 286 363 309 380 L294 404 C273 394 239 394 218 404Z" fill="#0b0d0f" stroke="#575b60" stroke-width="5"/>
  <path d="M245 82 L315 136 L274 138 L334 210 L244 168 L220 229 L196 155 L139 157Z" fill="url(#yellow)" stroke="#0c0d0f" stroke-width="9" stroke-linejoin="round"/>
  <path d="M258 96 L280 130 L252 127 L279 166 L235 141 L221 180 L212 133 L180 139Z" fill="#0b0d0f" opacity=".7"/>
  <path d="M63 260 C122 230 178 224 238 237 C297 250 356 241 449 207" fill="none" stroke="#222" stroke-width="8"/>
  <path d="M83 253 L66 231 M154 230 L137 207 M228 236 L215 211 M319 241 L334 217 M404 224 L421 198" stroke="#222" stroke-width="8" stroke-linecap="round"/>
</svg>