<svg xmlns="http://www.w3.org/2000/svg" viewBox="0 0 512 512" role="img" aria-label="The Flood favicon">
  <path d="M256 48 L472 432 H40Z" fill="#151719" stroke="#9f2223" stroke-width="34" stroke-linejoin="round"/>
  <path d="M177 124 L290 204 L226 205 L332 322 L195 245 L160 336 L141 224 L72 228Z" fill="#ffdf18" stroke="#111" stroke-width="11" stroke-linejoin="round"/>
  <path d="M251 286 C232 249 255 217 285 205 C273 239 307 246 323 218 C330 251 325 277 348 299 C369 320 363 370 326 391 C329 349 301 336 287 304 C279 345 252 362 228 394 C209 358 222 314 251 286Z" fill="#ffdf18" stroke="#151719" stroke-width="10"/>
</svg>