<svg xmlns="http://www.w3.org/2000/svg" viewBox="0 0 512 512" role="img" aria-label="Guchon dragon scale logo symbol">
  <defs>
    <linearGradient id="scale" x1="0" y1="0" x2="1" y2="1"><stop offset="0" stop-color="#22252b"/><stop offset=".55" stop-color="#050607"/><stop offset="1" stop-color="#1b1b1f"/></linearGradient>
    <linearGradient id="gold" x1="0" y1="0" x2="1" y2="1"><stop offset="0" stop-color="#caa867"/><stop offset="1" stop-color="#6f5426"/></linearGradient>
    <filter id="shadow" x="-20%" y="-20%" width="140%" height="140%"><feDropShadow dx="0" dy="10" stdDeviation="10" flood-color="#000" flood-opacity=".5"/></filter>
  </defs>
  <circle cx="256" cy="256" r="205" fill="none" stroke="#0a0b0d" stroke-width="20" stroke-linecap="round" stroke-dasharray="330 38" opacity=".9"/>
  <path d="M256 32 C330 78 382 166 371 254 C360 350 310 421 256 486 C202 421 152 350 141 254 C130 166 182 78 256 32Z" fill="url(#scale)" stroke="url(#gold)" stroke-width="8" filter="url(#shadow)"/>
  <path d="M179 188 C219 168 294 168 333 189 M169 242 C214 218 301 219 346 244 M188 304 C230 286 282 286 325 307" fill="none" stroke="#373a3e" stroke-width="7" opacity=".7"/>
  <path d="M334 197 L213 325 L293 311 L209 423 L355 254 L278 270Z" fill="#731016" opacity=".92"/>
  <path d="M343 242 C307 257 282 277 260 312 C242 341 218 374 186 405" fill="none" stroke="#b01820" stroke-width="18" stroke-linecap="round"/>
  <path d="M386 256 C334 268 300 294 272 336 C249 370 218 407 173 441" fill="none" stroke="#b01820" stroke-width="15" stroke-linecap="round"/>
  <path d="M361 308 C327 315 300 335 275 370" fill="none" stroke="#b01820" stroke-width="13" stroke-linecap="round"/>
  <path d="M255 93 C233 128 221 157 225 183 C238 160 260 151 287 151 C274 132 265 113 255 93Z" fill="#141518" stroke="#8d6c35" stroke-width="5"/>
  <path d="M256 58 L285 100 L256 91 L227 100Z" fill="url(#gold)"/>
  <path d="M206 55 L256 96 L306 55" fill="none" stroke="#20140a" stroke-width="7" stroke-linecap="round"/>
  <path d="M114 220 C82 249 79 302 112 337 M398 220 C430 249 433 302 400 337" fill="none" stroke="#8d6c35" stroke-width="8" opacity=".65"/>
  <path d="M256 486 C254 500 248 508 256 512 C264 508 258 500 256 486Z" fill="#050607"/>
</svg>